<mxfile host="app.diagrams.net" modified="2022-03-17T13:11:56.758Z" agent="5.0 (Windows NT 10.0; Win64; x64) AppleWebKit/537.36 (KHTML, like Gecko) Chrome/99.0.4844.51 Safari/537.36" etag="qLR21cydbWMU1Fwu6qAu" version="17.1.3" type="github">
  <diagram id="pJ2ju2GqR_rofjErQ9d9" name="Page-1">
    <mxGraphModel dx="943" dy="413" grid="1" gridSize="10" guides="1" tooltips="1" connect="1" arrows="1" fold="1" page="1" pageScale="1" pageWidth="827" pageHeight="1169" background="#283618" math="0" shadow="0">
      <root>
        <mxCell id="0" />
        <mxCell id="1" parent="0" />
        <mxCell id="NRtVBpzKgguiqCVdC9Zb-2" value="FIM" style="rounded=0;whiteSpace=wrap;html=1;fillColor=#BC6C25;strokeColor=#DDA15E;fontColor=#FEFAE0;" vertex="1" parent="1">
          <mxGeometry x="590" y="350" width="120" height="60" as="geometry" />
        </mxCell>
        <mxCell id="NRtVBpzKgguiqCVdC9Zb-9" value="" style="edgeStyle=orthogonalEdgeStyle;rounded=0;orthogonalLoop=1;jettySize=auto;html=1;strokeColor=#DDA15E;fontColor=#FEFAE0;labelBackgroundColor=#283618;" edge="1" parent="1" source="NRtVBpzKgguiqCVdC9Zb-3" target="NRtVBpzKgguiqCVdC9Zb-5">
          <mxGeometry relative="1" as="geometry" />
        </mxCell>
        <mxCell id="NRtVBpzKgguiqCVdC9Zb-3" value="&#39;&#39;A&#39;&#39; e &#39;&#39;B&#39;&#39;" style="shape=parallelogram;perimeter=parallelogramPerimeter;whiteSpace=wrap;html=1;fixedSize=1;fillColor=#BC6C25;strokeColor=#DDA15E;fontColor=#FEFAE0;rounded=0;" vertex="1" parent="1">
          <mxGeometry x="180" y="220" width="120" height="60" as="geometry" />
        </mxCell>
        <mxCell id="NRtVBpzKgguiqCVdC9Zb-11" value="" style="edgeStyle=orthogonalEdgeStyle;rounded=0;orthogonalLoop=1;jettySize=auto;html=1;strokeColor=#DDA15E;fontColor=#FEFAE0;labelBackgroundColor=#283618;" edge="1" parent="1" source="NRtVBpzKgguiqCVdC9Zb-4" target="NRtVBpzKgguiqCVdC9Zb-2">
          <mxGeometry relative="1" as="geometry" />
        </mxCell>
        <mxCell id="NRtVBpzKgguiqCVdC9Zb-4" value="&#39;&#39;X&#39;&#39;" style="shape=document;whiteSpace=wrap;html=1;boundedLbl=1;fillColor=#BC6C25;strokeColor=#DDA15E;fontColor=#FEFAE0;rounded=0;" vertex="1" parent="1">
          <mxGeometry x="370" y="340" width="120" height="80" as="geometry" />
        </mxCell>
        <mxCell id="NRtVBpzKgguiqCVdC9Zb-10" value="" style="edgeStyle=orthogonalEdgeStyle;rounded=0;orthogonalLoop=1;jettySize=auto;html=1;strokeColor=#DDA15E;fontColor=#FEFAE0;labelBackgroundColor=#283618;" edge="1" parent="1" source="NRtVBpzKgguiqCVdC9Zb-5" target="NRtVBpzKgguiqCVdC9Zb-4">
          <mxGeometry relative="1" as="geometry" />
        </mxCell>
        <mxCell id="NRtVBpzKgguiqCVdC9Zb-5" value="A + B = X" style="rounded=0;whiteSpace=wrap;html=1;fillColor=#BC6C25;strokeColor=#DDA15E;fontColor=#FEFAE0;" vertex="1" parent="1">
          <mxGeometry x="180" y="350" width="120" height="60" as="geometry" />
        </mxCell>
        <mxCell id="NRtVBpzKgguiqCVdC9Zb-8" value="" style="edgeStyle=orthogonalEdgeStyle;rounded=0;orthogonalLoop=1;jettySize=auto;html=1;strokeColor=#DDA15E;fontColor=#FEFAE0;labelBackgroundColor=#283618;" edge="1" parent="1" source="NRtVBpzKgguiqCVdC9Zb-1" target="NRtVBpzKgguiqCVdC9Zb-3">
          <mxGeometry relative="1" as="geometry" />
        </mxCell>
        <mxCell id="NRtVBpzKgguiqCVdC9Zb-1" value="INICIO&lt;br&gt;" style="rounded=0;whiteSpace=wrap;html=1;fillColor=#BC6C25;strokeColor=#DDA15E;fontColor=#FEFAE0;" vertex="1" parent="1">
          <mxGeometry x="180" y="90" width="120" height="60" as="geometry" />
        </mxCell>
        <mxCell id="NRtVBpzKgguiqCVdC9Zb-12" value="Primeiro Diagrama :)" style="text;strokeColor=#DDA15E;fillColor=#BC6C25;html=1;fontSize=24;fontStyle=1;verticalAlign=middle;align=center;rounded=0;fontColor=#FEFAE0;" vertex="1" parent="1">
          <mxGeometry x="370" y="180" width="300" height="40" as="geometry" />
        </mxCell>
      </root>
    </mxGraphModel>
  </diagram>
</mxfile>
